# xmcd
#
# Track frame offsets:
#	150
#	19927
#	36420
#	51675
#	62860
#	77407
#	90489
#	107424
#	122648
#	138668
#	151931
#	167779
#	182732
#	195338
#	209412
#	224368
#	238838
#
# Disc length: 3387 seconds
#
# Revision: 0
# Processed by: cddbd v1.5.2PL0 Copyright (c) Steve Scherf et al.
# Submitted via: EasyCDDAExtractor 16.0.8.2
#
DISCID=f20d3911
DTITLE=Συλλογικός δίσκος - Μέσ' στου Αιγαίου τα νησιά 5
DYEAR=1999
DGENRE=Παραδοσιακή
TTITLE0=Λεγάκη Ελένη - Σ' αγαπώ και όρκο κάνω
TTITLE1=Καραμπεσίνη Άννα-Σαρρή Έφη - Το πιπίνι
TTITLE2=Κονιτοπούλου Ειρήνη - Ωραία πού 'ναι την αυγή (διασκ. Ειρ. Κονιτοπούλο
TTITLE2=υ-Λεγάκη)
TTITLE3=Σπανού Θάλεια - Τα γαλανά νησιά μας
TTITLE4=Άνευ ερμηνευτού - Μπάλλος Κυκλάδων
TTITLE5=Χατζηδάκη Αιμιλία - Ξύπνα διαμάντι και ρουμπλί
TTITLE6=Λεγάκη Ελένη - Ήθελα νά 'μαι στο χωριό
TTITLE7=Σπανού Θάλεια - Στην όμορφη την Πάτμο
TTITLE8=Χατζηδάκη Αιμιλία - Μπρατσέρα
TTITLE9=Καραμπεσίνη Άννα-Σαρρή Έφη - Τη θάλασσα τη γαλανή
TTITLE10=Καβακοπούλου Ειρήνη - Στο σπίτι που χορεύουμε
TTITLE11=Χατζηδάκη Άννα - Αγάπη μου τα κύματα
TTITLE12=Καραθανάση Ξανθίπη - Ξεκινά μιά ψαροπούλα
TTITLE13=Καραμπεσίνη Άννα-Σαρρή Έφη - Άγγελος είσαι μάτια μου
TTITLE14=Καβακοπούλου Ειρήνη - Αμοργιανό είν' το νερό
TTITLE15=Λιαδάκη Ειρήνη - Θάλασσα απ' όλα τα νερά (διασκ. Γ. Κονιτόπουλος)
TTITLE16=Λεγάκη Ελένη - Θαλασσοπούλια ναυτικοί
EXTD=
EXTT0=
EXTT1=
EXTT2=
EXTT3=
EXTT4=
EXTT5=
EXTT6=
EXTT7=
EXTT8=
EXTT9=
EXTT10=
EXTT11=
EXTT12=
EXTT13=
EXTT14=
EXTT15=
EXTT16=
PLAYORDER=
